<?xml version="1.0" encoding="utf-8"?>
<!-- Generator: Adobe Illustrator 16.0.0, SVG Export Plug-In . SVG Version: 6.00 Build 0)  -->
<!DOCTYPE svg PUBLIC "-//W3C//DTD SVG 1.1//EN" "http://www.w3.org/Graphics/SVG/1.1/DTD/svg11.dtd">
<svg version="1.1" id="Layer_1" xmlns="http://www.w3.org/2000/svg" xmlns:xlink="http://www.w3.org/1999/xlink" x="0px" y="0px"
	 width="144px" height="144px" viewBox="0 0 144 144" enable-background="new 0 0 144 144" xml:space="preserve">
<path id="Facebook__x28_alt_x29_" fill="#FFFFFF" d="M117,36.437c0-7.882-7.115-15.001-15-15.001H42.001
	C34.116,21.436,27,28.555,27,36.437v59.998c0,7.882,7.116,15.001,15.001,15.001H72v-34H61v-15h11v-5.844
	c0-10.079,7.569-19.156,16.875-19.156H101v15H88.875c-1.327,0-2.875,1.611-2.875,4.024v5.976h15v15H86v34h16
	c7.885,0,15-7.119,15-15.001V36.437z"/>
</svg>
