<?xml version="1.0" encoding="utf-8"?>
<!-- Generator: Adobe Illustrator 16.0.0, SVG Export Plug-In . SVG Version: 6.00 Build 0)  -->
<!DOCTYPE svg PUBLIC "-//W3C//DTD SVG 1.1//EN" "http://www.w3.org/Graphics/SVG/1.1/DTD/svg11.dtd">
<svg version="1.1" id="Layer_1" xmlns="http://www.w3.org/2000/svg" xmlns:xlink="http://www.w3.org/1999/xlink" x="0px" y="0px"
	 width="216px" height="216px" viewBox="0 0 216 216" enable-background="new 0 0 216 216" xml:space="preserve">
<g>
	<path fill="#FFFFFF" d="M52.767,146.903h115.336C168.104,146.903,111.032,224.247,52.767,146.903z"/>
</g>
<g>
	<path fill="#FFFFFF" d="M110.445,43.027c0,0,0.413,0.008,1.212,0.024c0.802,0.033,1.979-0.003,3.541,0.137
		c3.119,0.175,7.673,0.695,13.31,2.176c2.829,0.692,5.884,1.754,9.135,3.088c3.246,1.347,6.686,3.017,10.153,5.171
		c6.953,4.268,14.027,10.461,20.108,18.645c3.001,4.114,5.691,8.754,7.874,13.855c2.235,5.081,3.864,10.661,4.854,16.546
		c0.262,1.47,0.405,2.967,0.599,4.473c0.057,0.756,0.114,1.515,0.171,2.275l0.085,1.146l0.033,1.192
		c0.021,0.729,0.04,1.46,0.06,2.192c0.011,0.747-0.03,1.581-0.046,2.374c-0.013,1.631-0.17,3.175-0.288,4.763
		c-0.335,3.153-0.798,6.352-1.58,9.519c-0.336,1.6-0.832,3.163-1.276,4.756c-0.253,0.785-0.536,1.563-0.807,2.349
		c-0.261,0.79-0.556,1.568-0.879,2.338c-2.445,6.218-5.851,12.209-10.088,17.714c-4.292,5.464-9.482,10.348-15.314,14.469
		c-2.917,2.062-6.018,3.896-9.239,5.525c-3.237,1.602-6.628,2.911-10.083,4.039c-3.461,1.129-7.038,1.888-10.639,2.468
		c-1.808,0.245-3.616,0.496-5.438,0.608c-0.91,0.076-1.819,0.153-2.731,0.165l-1.367,0.041l-0.685,0.019l-0.865,0.011l-2.475-0.075
		c-0.43-0.019-0.785-0.011-1.276-0.051l-1.43-0.109c-1.945-0.118-3.737-0.371-5.541-0.614c-3.603-0.57-7.174-1.355-10.634-2.479
		c-3.454-1.13-6.846-2.433-10.08-4.041c-3.21-1.65-6.317-3.467-9.231-5.532c-5.825-4.123-11.03-8.99-15.299-14.471
		c-4.236-5.5-7.641-11.487-10.086-17.701c-0.323-0.77-0.618-1.548-0.879-2.336c-0.271-0.785-0.554-1.562-0.8-2.351
		c-0.445-1.592-0.941-3.154-1.277-4.753c-0.782-3.165-1.245-6.36-1.582-9.512c-0.118-1.583-0.276-3.149-0.286-4.715
		c-0.015-0.781-0.056-1.559-0.047-2.334c0.019-0.774,0.037-1.547,0.055-2.317l0.035-1.24l0.084-1.085
		c0.056-0.722,0.111-1.442,0.167-2.159c0.19-1.519,0.338-3.093,0.6-4.556C42.207,90.875,47,80.493,52.981,72.278
		c6.078-8.182,13.142-14.383,20.097-18.648c3.467-2.155,6.907-3.822,10.15-5.175c3.251-1.333,6.306-2.396,9.135-3.088
		c5.633-1.483,10.197-2.002,13.302-2.177c1.551-0.14,2.748-0.105,3.551-0.138c0.804-0.016,1.219-0.024,1.219-0.024H110.445z
		 M110.436,43.827c0,0-0.41,0.011-1.204,0.033c-0.794,0.038-1.976,0.01-3.508,0.16c-3.062,0.205-7.576,0.711-13.106,2.263
		c-5.514,1.54-12.087,4.116-18.758,8.537c-6.657,4.387-13.437,10.595-18.899,18.784c-2.715,4.093-5.093,8.658-6.96,13.612
		c-1.877,4.951-3.138,10.318-3.784,15.902c-0.176,1.396-0.234,2.8-0.345,4.217c-0.011,1.426-0.118,2.907-0.052,4.314
		c0.02,0.721,0.04,1.443,0.059,2.169c0.028,0.725,0.105,1.449,0.156,2.178c0.081,1.458,0.307,2.91,0.488,4.374
		c0.463,2.912,1.038,5.847,1.91,8.729c0.381,1.458,0.917,2.875,1.395,4.316l0.834,2.126c0.269,0.714,0.57,1.417,0.898,2.109
		c4.961,11.202,13.349,21.348,24.094,28.436c10.712,7.137,23.701,11.077,36.802,11.024c3.221-0.041,6.512-0.231,9.73-0.702
		c3.219-0.502,6.415-1.161,9.525-2.111c6.225-1.875,12.142-4.666,17.505-8.212c10.744-7.088,19.132-17.233,24.093-28.435
		c0.328-0.693,0.629-1.396,0.898-2.109l0.835-2.126c0.478-1.441,1.014-2.858,1.395-4.316c0.872-2.883,1.446-5.817,1.91-8.729
		c0.182-1.463,0.407-2.918,0.487-4.367c0.051-0.727,0.128-1.441,0.156-2.171c0.02-0.731,0.039-1.462,0.06-2.189
		c0.065-1.429-0.041-2.872-0.052-4.293c-0.11-1.419-0.169-2.836-0.345-4.231c-0.646-5.584-1.907-10.951-3.784-15.902
		c-1.866-4.955-4.245-9.519-6.96-13.612c-5.461-8.188-12.241-14.397-18.898-18.784c-6.67-4.421-13.243-6.998-18.757-8.537
		c-5.527-1.552-10.051-2.059-13.101-2.263c-1.521-0.149-2.721-0.123-3.517-0.161c-0.799-0.021-1.211-0.033-1.211-0.033H110.436z"/>
</g>
<g>
	<path fill="#FFFFFF" d="M52.221,113.429c0,0,9.237-7.9,22.208-2.78c0,0,24.916,5.46,30.035-8.533c0,0,2.049-4.438-4.096-8.533
		c0,0,11.946,3.072,7.168,13.823c0,0-9.084,13.88-32.425,7.68C75.111,115.085,59.026,108.702,52.221,113.429z"/>
</g>
<g>
	<path fill="#FFFFFF" d="M52.767,116.679c0,0,7.988-1.322,18.589,1.818c0,0,17.749,5.803,31.742,0c0,0,20.127-6.143,6.65-26.28
		c0,0-5.968-6.826-12.111-2.048c0,0-0.341,2.39-3.754,1.024c0,0,9.557-16.042,25.598,2.389c0,0,18.432,19.966,39.271,23.61
		c0,0-33.81-0.514-41.659-18.241c0,0,8.453,25.46-26.281,27.056c0,0-7.509,1.706-25.94-6.827
		C64.871,119.18,61.824,116.909,52.767,116.679z"/>
</g>
<g>
	<path fill="#FFFFFF" d="M99.138,131.033c0,0,25.615-5.415,23.92-15.359c0,0,32.941,12.288,41.638,4.778
		c0,0-12.772,9.478-37.91,2.901C126.786,123.354,109.7,133.081,99.138,131.033z"/>
</g>
</svg>
