<?xml version="1.0" encoding="utf-8"?>
<!-- Generator: Adobe Illustrator 16.0.0, SVG Export Plug-In . SVG Version: 6.00 Build 0)  -->
<!DOCTYPE svg PUBLIC "-//W3C//DTD SVG 1.1//EN" "http://www.w3.org/Graphics/SVG/1.1/DTD/svg11.dtd">
<svg version="1.1" id="Layer_1" xmlns="http://www.w3.org/2000/svg" xmlns:xlink="http://www.w3.org/1999/xlink" x="0px" y="0px"
	 width="144px" height="144px" viewBox="0 0 144 144" enable-background="new 0 0 144 144" xml:space="preserve">
<path id="Twitter_2_" fill="#FFFFFF" d="M118.747,37.732c-3.44,1.524-7.136,2.557-11.017,3.021c3.96-2.374,7.001-6.134,8.434-10.613
	c-3.706,2.198-7.811,3.795-12.181,4.654c-3.499-3.727-8.483-6.057-14.001-6.057c-10.592,0-19.181,8.588-19.181,19.181
	c0,1.504,0.169,2.968,0.497,4.372c-15.941-0.8-30.076-8.437-39.536-20.041c-1.651,2.832-2.597,6.127-2.597,9.644
	c0,6.654,3.386,12.524,8.533,15.965c-3.144-0.1-6.102-0.962-8.687-2.399c-0.002,0.08-0.002,0.161-0.002,0.241
	c0,9.294,6.612,17.046,15.386,18.809c-1.609,0.438-3.304,0.674-5.054,0.674c-1.235,0-2.437-0.121-3.608-0.346
	c2.441,7.619,9.525,13.166,17.918,13.32c-6.565,5.145-14.836,8.213-23.822,8.213c-1.549,0-3.075-0.092-4.576-0.27
	c8.488,5.441,18.571,8.619,29.403,8.619c35.281,0,54.575-29.229,54.575-54.577c0-0.831-0.019-1.658-0.056-2.481
	C112.924,44.956,116.176,41.578,118.747,37.732z"/>
</svg>
